<svg width="32" height="20" viewBox="0 0 32 20" fill="none" xmlns="http://www.w3.org/2000/svg">
<path d="M27.1871 0H4.8129C2.15481 0 0 2.04925 0 4.57713V15.4229C0 17.9508 2.15481 20 4.8129 20H27.1871C29.8452 20 32 17.9508 32 15.4229V4.57713C32 2.04925 29.8452 0 27.1871 0Z" fill="#030303"/>
<path d="M20.4482 17H12.0635V15.8311L16.4932 10.9092C17.1494 10.165 17.6006 9.56152 17.8467 9.09863C18.0986 8.62988 18.2246 8.14648 18.2246 7.64844C18.2246 6.98047 18.0225 6.43262 17.6182 6.00488C17.2139 5.57715 16.6748 5.36328 16.001 5.36328C15.1924 5.36328 14.5625 5.59473 14.1113 6.05762C13.666 6.51465 13.4434 7.15332 13.4434 7.97363H11.8174C11.8174 6.7959 12.1953 5.84375 12.9512 5.11719C13.7129 4.39062 14.7295 4.02734 16.001 4.02734C17.1904 4.02734 18.1309 4.34082 18.8223 4.96777C19.5137 5.58887 19.8594 6.41797 19.8594 7.45508C19.8594 8.71484 19.0566 10.2148 17.4512 11.9551L14.0234 15.6729H20.4482V17Z" fill="#A4A4A3"/>
</svg>
